<svg aria-hidden="true" style="position: absolute; width: 0; height: 0; overflow: hidden;" version="1.1" xmlns="http://www.w3.org/2000/svg" xmlns:xlink="http://www.w3.org/1999/xlink">
<defs>
<symbol id="logo" viewBox="0 0 37 32">
<path d="M17.037 0.158c-5.634 0.466-10.614 3.929-13.025 9.052-0.21 0.458-0.466 1.089-0.563 1.39-0.098 0.308-0.203 0.601-0.24 0.646-0.053 0.075-0.466 0.098-1.6 0.098h-1.532v0.451h36.432v-0.451h-3.050l-0.436-1.112c-0.946-2.411-2.344-4.447-4.131-6.039-2.719-2.419-5.792-3.741-9.397-4.041-1.007-0.083-1.405-0.083-2.456 0.008zM20.146 0.871c2.749 0.353 5.401 1.457 7.497 3.117 1.119 0.886 2.419 2.306 3.283 3.598 0.623 0.924 1.75 3.305 1.75 3.688 0 0.038-5.439 0.068-14.347 0.068h-14.347v-0.173c0-0.233 0.586-1.638 0.999-2.396 2.389-4.379 6.528-7.241 11.433-7.902 1.044-0.143 2.629-0.143 3.733 0z"></path>
<path d="M19.005 2.945c-0.999 0.285-1.345 1.465-0.766 2.622 0.128 0.263 0.376 0.631 0.533 0.819 0.278 0.316 0.308 0.331 0.428 0.21 0.113-0.113 0.098-0.158-0.285-0.638-0.233-0.278-0.458-0.586-0.503-0.676-0.15-0.293-0.218-0.834-0.15-1.202 0.18-0.954 1.487-1.36 1.946-0.608 0.24 0.391 0.195 0.714-0.128 1.014-0.24 0.233-0.316 0.255-0.563 0.225-0.285-0.038-0.391 0.038-0.165 0.128 0.428 0.165 1.029-0.158 1.149-0.608 0.090-0.323 0-0.751-0.203-0.984-0.143-0.158-0.691-0.398-0.901-0.383-0.068 0-0.248 0.038-0.391 0.083z"></path>
<path d="M13.679 3.778c-0.030 0.090-0.083 0.285-0.113 0.436-0.045 0.263-0.045 0.27 0.293 0.398 0.18 0.075 0.443 0.233 0.571 0.353 0.3 0.278 0.27 0.391-0.293 1.254-0.518 0.789-0.729 1.435-0.661 1.991 0.045 0.323 0.038 0.368-0.105 0.406-0.113 0.030-0.15 0.098-0.15 0.293v0.255h11.117v-0.518l-0.864-0.045-0.023-0.623c-0.023-0.578-0.008-0.638 0.188-0.894 0.488-0.638 0.098-1.45-0.691-1.45-0.541 0-0.856 0.308-0.864 0.834 0 0.248 0.053 0.428 0.188 0.623 0.143 0.21 0.188 0.376 0.188 0.691v0.406l-0.24-0.105c-0.135-0.060-0.781-0.346-1.435-0.638-0.946-0.428-1.209-0.518-1.33-0.458-0.285 0.15-0.173 0.233-3.117-2.321-0.451-0.391-0.886-0.759-0.962-0.826-0.113-0.098-0.15-0.090-0.316 0.068-0.188 0.173-0.188 0.173-0.473 0.045-0.15-0.075-0.406-0.18-0.563-0.24-0.27-0.098-0.285-0.090-0.346 0.068zM17.082 6.039c0.811 0.699 1.472 1.3 1.472 1.337s-0.556 0.338-1.239 0.669l-1.232 0.593h-0.714c-0.699 0-0.721-0.008-0.849-0.203-0.248-0.376-0.173-0.759 0.323-1.57 0.751-1.239 0.714-1.149 0.691-1.668-0.015-0.255 0-0.458 0.030-0.451 0.030 0.015 0.714 0.593 1.517 1.292z"></path>
<path d="M8.263 10.216v0.3h20.056v-0.601h-20.056v0.3z"></path>
<path d="M19.418 14.077c-0.639 0.3-0.939 0.729-0.939 1.33 0 0.684 0.481 1.127 1.705 1.585 0.571 0.21 0.751 0.331 0.804 0.548 0.098 0.383-0.233 0.714-0.714 0.714-0.338 0-0.616-0.173-0.804-0.518l-0.173-0.3-0.391 0.15c-0.218 0.090-0.466 0.188-0.556 0.225-0.225 0.083-0.218 0.21 0.045 0.563 0.308 0.421 0.526 0.601 0.946 0.789 1.022 0.458 2.479-0.015 2.9-0.939 0.421-0.931-0.158-1.758-1.607-2.269-0.3-0.113-0.601-0.248-0.669-0.316-0.3-0.255-0.045-0.691 0.398-0.691 0.105 0 0.323 0.090 0.481 0.195l0.293 0.195 0.511-0.203c0.278-0.113 0.526-0.233 0.548-0.27 0.083-0.12-0.601-0.706-0.984-0.841-0.548-0.195-1.322-0.173-1.795 0.053z"></path>
<path d="M24.15 14.107c-0.946 0.458-1.375 1.36-1.3 2.749 0.083 1.577 0.969 2.494 2.396 2.479 0.368-0.008 0.601-0.060 0.901-0.203 0.526-0.255 0.699-0.406 0.999-0.909 0.661-1.097 0.511-2.817-0.316-3.673-0.451-0.466-0.781-0.601-1.555-0.631-0.623-0.030-0.714-0.015-1.127 0.188zM25.728 15.181c0.639 0.563 0.654 2.246 0.030 2.869-0.203 0.203-0.263 0.218-0.601 0.188-0.458-0.045-0.623-0.188-0.826-0.729-0.128-0.346-0.15-0.541-0.128-1.097 0.038-0.774 0.165-1.097 0.533-1.315 0.353-0.218 0.676-0.195 0.992 0.083z"></path>
<path d="M3.951 14.393c-0.135 0.436-0.135 0.436 0.023 0.541s0.158 0.15 0.158 2.208v2.103l1.412-0.030c1.405-0.023 1.42-0.023 1.855-0.248 0.548-0.285 0.714-0.563 0.714-1.224 0-0.488-0.135-0.871-0.368-1.044-0.458-0.331-0.443-0.293-0.218-0.526 0.353-0.368 0.406-1.179 0.105-1.638-0.075-0.113-0.293-0.27-0.481-0.361-0.308-0.143-0.518-0.165-1.705-0.188l-1.36-0.030-0.135 0.436zM6.37 15.151c0.3 0.331 0.060 0.729-0.473 0.796-0.511 0.075-0.563 0.030-0.563-0.481s0.090-0.593 0.556-0.541c0.203 0.023 0.368 0.105 0.481 0.225zM6.423 17.097c0.3 0.143 0.413 0.421 0.323 0.759-0.075 0.3-0.195 0.368-0.759 0.436-0.601 0.075-0.654 0.015-0.654-0.721v-0.593h0.421c0.233 0 0.533 0.053 0.669 0.12z"></path>
<path d="M8.759 14.325c-0.143 0.421-0.15 0.631-0.023 0.601 0.068-0.008 0.098 0.466 0.113 2.141l0.015 2.163h1.277v-0.706c0-0.593 0.023-0.714 0.128-0.751 0.158-0.060 0.225 0 0.751 0.781l0.436 0.639 1.405 0.045-0.533-0.781c-0.293-0.428-0.533-0.811-0.533-0.856 0-0.038 0.12-0.128 0.263-0.195s0.353-0.263 0.466-0.436c0.18-0.27 0.21-0.406 0.233-0.999 0.030-0.593 0.008-0.736-0.135-1.044-0.353-0.744-0.916-0.954-2.599-0.954h-1.142l-0.12 0.353zM11.245 15.204c0.135 0.158 0.173 0.293 0.173 0.608 0 0.721-0.248 0.969-0.909 0.924l-0.331-0.023-0.023-0.856c-0.015-0.541 0.008-0.879 0.060-0.909 0.045-0.023 0.248-0.023 0.466 0 0.285 0.038 0.428 0.105 0.563 0.255z"></path>
<path d="M13.476 14.4c-0.113 0.376-0.113 0.436-0.008 0.511 0.090 0.068 0.113 0.346 0.135 1.502 0.030 1.382 0.038 1.442 0.24 1.855 0.346 0.699 0.961 1.052 1.87 1.052 0.939 0.008 1.638-0.503 1.9-1.39 0.083-0.293 0.113-0.804 0.113-2.171v-1.788h-1.277v1.795c0 1.112-0.030 1.878-0.083 2.028-0.165 0.481-0.804 0.601-1.209 0.24l-0.248-0.218-0.045-3.846h-1.262l-0.128 0.428z"></path>
<path d="M28.177 14.295c-0.045 0.188-0.105 0.391-0.128 0.458-0.038 0.090 0 0.143 0.113 0.173 0.158 0.038 0.158 0.060 0.158 2.171v2.133h1.277v-0.526c0-0.443 0.030-0.578 0.195-0.826 0.113-0.165 0.225-0.3 0.255-0.3s0.3 0.368 0.593 0.826l0.526 0.826h1.36l-0.436-0.661c-0.24-0.361-0.631-0.946-0.871-1.307-0.278-0.413-0.428-0.706-0.406-0.796 0.023-0.075 0.398-0.669 0.841-1.315l0.804-1.179h-1.36l-0.691 1.052c-0.383 0.578-0.721 1.052-0.751 1.052s-0.068-0.466-0.075-1.037l-0.023-1.029-1.292-0.045-0.090 0.331z"></path>
<path d="M0.075 21.634v0.225h1.795c1.345 0 1.81 0.023 1.87 0.090 0.038 0.053 0.353 0.699 0.691 1.442 0.834 1.81 1.037 2.156 1.9 3.125 0.488 0.556 1.097 1.074 2.269 1.946 3.395 2.531 4.334 3.012 6.483 3.328 1.052 0.158 5.934 0.128 6.866-0.038 1.765-0.308 2.93-0.931 5.769-3.057 2.501-1.885 3.508-3.005 4.237-4.747 0.18-0.428 0.406-0.924 0.511-1.112 0.098-0.188 0.24-0.488 0.308-0.661l0.128-0.316h3.606v-0.451h-36.432v0.225zM5.746 21.919c0.045 0.030 0.225 0.353 0.406 0.729 0.353 0.736 1.067 1.855 1.735 2.742 0.428 0.556 1.675 1.803 1.81 1.803 0.165 0 0.045 0.3-0.188 0.481-0.143 0.105-0.285 0.195-0.316 0.195-0.195 0-1.976-1.713-2.614-2.501-0.834-1.044-2.141-3.26-2.036-3.44 0.053-0.083 1.089-0.090 1.202-0.008zM7.932 22.212c0.113 0.203 0.428 0.631 0.699 0.962 0.278 0.331 0.586 0.729 0.691 0.879 0.368 0.541 0.894 1.037 0.894 0.849 0-0.038-0.563-0.759-0.849-1.089-0.533-0.608-1.284-1.773-1.217-1.878 0.023-0.038 0.323-0.075 0.676-0.075h0.631l0.361 0.646c0.406 0.729 1.239 1.585 2.028 2.096 0.263 0.165 0.473 0.338 0.473 0.383 0 0.068-1.202 1.232-1.976 1.9l-0.278 0.248-0.285-0.21c-0.804-0.608-1.705-1.645-2.569-2.96-0.503-0.774-1.052-1.803-1.052-1.991 0-0.090 0.135-0.113 0.781-0.113h0.781l0.21 0.353zM12.244 22.002c0 0.128 0.894 1.067 1.367 1.427l0.195 0.158-0.578 0.601c-0.323 0.331-0.631 0.601-0.691 0.601-0.195 0-1.525-1.082-1.878-1.525-0.398-0.488-0.841-1.285-0.766-1.36 0.023-0.023 0.563-0.045 1.202-0.045 1.067 0 1.149 0.008 1.149 0.143zM21.461 22.002c-0.023 0.105 0 0.128 0.113 0.098 0.083-0.015 0.165-0.083 0.188-0.135 0.030-0.090 0.511-0.105 2.592-0.105h2.554l-0.053 0.203c-0.15 0.608-1.705 2.058-3.358 3.132-1.495 0.969-2.749 1.39-4.342 1.427-1.112 0.030-1.052 0.030-1.052 0.12 0 0.203 2.434-0.030 3.493-0.338 0.353-0.105 0.856-0.293 1.112-0.421 0.744-0.376 2.013-1.254 2.824-1.961 0.18-0.158 0.376-0.285 0.428-0.285s0.548 0.436 1.097 0.969l0.999 0.969-0.751 0.766c-0.413 0.421-0.977 0.931-1.247 1.134-0.511 0.376-1.577 0.939-2.171 1.142-0.188 0.060-0.488 0.18-0.676 0.263-0.323 0.15-0.331 0.158-0.113 0.158 0.316 0.008 1.698-0.571 2.464-1.037 0.796-0.481 1.262-0.841 2.058-1.608l0.616-0.593 0.218 0.173c0.12 0.098 0.278 0.263 0.353 0.361l0.143 0.188-0.376 0.331c-1.638 1.457-3.485 2.539-5.469 3.207-1.194 0.398-2.892 0.744-3.020 0.608-0.075-0.075-0.406-1.465-0.526-2.193l-0.045-0.308 0.473-0.045c0.255-0.030 0.811-0.173 1.224-0.323 0.421-0.15 1.067-0.368 1.442-0.481 0.781-0.233 1.292-0.488 1.795-0.909 0.195-0.158 0.376-0.293 0.406-0.293s0.233-0.15 0.451-0.338c0.218-0.188 0.436-0.338 0.481-0.338 0.128 0 0.699-0.503 0.639-0.563-0.060-0.068-0.421 0.128-0.684 0.368-0.113 0.105-0.316 0.248-0.451 0.316-0.135 0.075-0.391 0.255-0.571 0.421-0.563 0.496-1.134 0.789-2.073 1.074-0.496 0.15-1.202 0.368-1.57 0.496-0.871 0.293-1.532 0.368-1.66 0.188-0.075-0.098-0.105-0.105-0.135-0.023-0.060 0.165-2.021 0.24-2.629 0.098-0.255-0.060-0.669-0.128-0.924-0.15-0.3-0.030-0.654-0.135-1.029-0.308-0.563-0.263-1.405-0.443-1.307-0.285 0.030 0.045 0.173 0.105 0.323 0.135 0.158 0.023 0.533 0.165 0.841 0.308 0.413 0.188 0.729 0.278 1.209 0.331 0.353 0.038 0.796 0.12 0.984 0.188 0.255 0.090 0.593 0.12 1.412 0.113l1.082-0.008-0.053 0.811c-0.030 0.451-0.075 1.044-0.105 1.337l-0.045 0.526-0.714 0.023c-1.405 0.053-3.23-0.248-4.868-0.781-1.187-0.391-3.395-1.525-3.395-1.735 0-0.053 0.113-0.225 0.248-0.376l0.255-0.27 0.631 0.338c0.346 0.188 0.916 0.466 1.269 0.623 0.353 0.15 0.826 0.368 1.052 0.473 0.699 0.316 1.893 0.691 2.208 0.684 0.255 0 0.075-0.083-0.969-0.436-1.232-0.413-3.388-1.412-3.838-1.773l-0.195-0.158 0.916-1.119c0.503-0.623 0.961-1.149 1.014-1.179 0.053-0.038 0.135-0.008 0.188 0.053 0.105 0.128 0.3 0.15 0.3 0.038 0-0.038-0.068-0.105-0.15-0.15-0.225-0.12-0.188-0.233 0.195-0.646 0.188-0.203 0.428-0.473 0.526-0.608l0.188-0.24 0.263 0.158c0.135 0.083 0.631 0.285 1.097 0.451s1.022 0.368 1.224 0.443c0.316 0.113 0.601 0.135 1.803 0.135 1.345 0.008 1.457-0.008 1.953-0.188 0.293-0.105 0.796-0.278 1.127-0.383 0.691-0.218 1.022-0.391 1.668-0.894 0.255-0.203 0.601-0.466 0.766-0.578 0.285-0.195 0.391-0.353 0.248-0.353-0.090 0-1.307 0.811-1.442 0.962-0.218 0.24-0.511 0.383-1.172 0.571-0.368 0.105-0.909 0.27-1.202 0.376-0.496 0.165-0.654 0.18-1.953 0.18-1.39 0-1.435 0-2.058-0.225-0.353-0.12-0.909-0.308-1.239-0.413-0.563-0.18-1.089-0.473-1.405-0.789-0.075-0.075-0.165-0.135-0.21-0.135-0.038 0-0.075-0.045-0.083-0.098 0-0.045-0.225-0.278-0.488-0.503l-0.496-0.413 1.254-0.023 1.254-0.015 0.263 0.225c0.804 0.714 1.442 0.886 3.253 0.909 0.826 0.008 1.067-0.015 1.315-0.12 0.165-0.075 0.443-0.143 0.616-0.158 0.361-0.023 0.736-0.195 0.804-0.368 0.038-0.098 0.015-0.105-0.165-0.008-0.113 0.053-0.353 0.128-0.541 0.158s-0.533 0.12-0.766 0.195c-0.391 0.128-0.526 0.135-1.57 0.068-0.871-0.060-1.277-0.128-1.72-0.27-0.684-0.225-1.052-0.436-1.052-0.593 0-0.098 0.383-0.113 3.125-0.113 3.020 0 3.125 0.008 3.087 0.143zM28.469 21.979c0 0.158-0.443 0.931-0.533 0.931-0.038 0-0.068 0.038-0.068 0.083s-0.053 0.128-0.113 0.188c-0.135 0.143-0.15 0.361-0.015 0.285 0.18-0.12 0.421-0.466 0.811-1.194 0.090-0.165 0.203-0.323 0.248-0.353s0.466-0.060 0.931-0.060c0.826 0 0.841 0 0.841 0.165 0 0.248-0.331 0.916-0.729 1.48-0.601 0.849-1.322 1.668-1.427 1.623-0.12-0.038-2.201-1.375-2.306-1.472-0.038-0.030 0.12-0.27 0.346-0.533 0.233-0.263 0.503-0.654 0.616-0.871l0.195-0.391h0.601c0.503 0 0.601 0.023 0.601 0.12zM32.075 22.009c0 0.496-2.178 3.831-2.501 3.831-0.053 0-0.255-0.105-0.458-0.225-0.406-0.255-0.413-0.195 0.218-0.977 0.623-0.781 1.142-1.562 1.322-2.043 0.090-0.218 0.188-0.473 0.225-0.571 0.060-0.15 0.113-0.165 0.631-0.165 0.511 0 0.563 0.015 0.563 0.15z"></path>
</symbol>
<symbol id="newspaper" viewBox="0 0 32 32">
<path d="M28 8v-4h-28v22c0 1.105 0.895 2 2 2h27c1.657 0 3-1.343 3-3v-17h-4zM26 26h-24v-20h24v20zM4 10h20v2h-20zM16 14h8v2h-8zM16 18h8v2h-8zM16 22h6v2h-6zM4 14h10v10h-10z"></path>
</symbol>
<symbol id="icon" viewBox="0 0 192 32">
<path d="M180.878 17.657c0.204-1.634 1.1-2.276 3.018-2.276h0.765c1.917 0 2.812 0.642 3.018 2.276h-6.801zM185.045 12.34h-1.541c-3.86 0-6.084 2.224-6.084 6.085v1.348c0 3.858 2.224 6.057 6.084 6.057h6.417c0.094-0.011 0.182-0.056 0.246-0.127s0.101-0.162 0.104-0.257v-2.276c0-0.204 0.025-0.382-0.181-0.382h-6.203c-1.842 0-2.868-0.749-2.966-2.251h9.84c0.101-0.002 0.197-0.043 0.268-0.114 0.072-0.071 0.113-0.167 0.116-0.268v-1.737c0-3.86-2.249-6.085-6.11-6.085z"></path>
<path d="M119.779 17.657c0.204-1.634 1.099-2.276 3.017-2.276h0.766c1.917 0 2.812 0.642 3.016 2.276h-6.799zM123.946 12.34h-1.535c-3.859 0-6.083 2.224-6.083 6.085v1.348c0 3.858 2.224 6.057 6.083 6.057h6.42c0.095-0.011 0.183-0.056 0.247-0.127s0.101-0.162 0.103-0.257v-2.276c0-0.204 0.025-0.382-0.18-0.382h-6.207c-1.84 0-2.868-0.749-2.966-2.251h9.842c0.101-0.002 0.197-0.043 0.268-0.115s0.112-0.167 0.115-0.268v-1.737c0-3.86-2.25-6.085-6.108-6.085z"></path>
<path d="M89.401 17.657c0.204-1.634 1.1-2.276 3.016-2.276h0.766c1.917 0 2.812 0.642 3.018 2.276h-6.801zM93.567 12.34h-1.533c-3.86 0-6.083 2.224-6.083 6.085v1.348c0 3.858 2.223 6.057 6.083 6.057h6.416c0.095-0.011 0.182-0.056 0.247-0.127s0.101-0.162 0.103-0.257v-2.276c0-0.204 0.025-0.382-0.18-0.382h-6.21c-1.84 0-2.866-0.749-2.964-2.251h9.84c0.101-0.002 0.197-0.043 0.268-0.114s0.113-0.167 0.116-0.268v-1.737c0-3.86-2.249-6.085-6.11-6.085z"></path>
<path d="M73.48 25.836c0.207 0 0.258-0.155 0.258-0.361v-7.015c0-2.203 0.455-3.048 3.023-3.048h0.764c2.612 0 3.047 0.846 3.047 2.663v7.396c0 0.207 0.016 0.361 0.224 0.361h2.982c0.204 0 0.227-0.157 0.227-0.361v-7.397c0-3.788-2.049-5.709-6.095-5.709h-1.533c-0.91 0.071-1.804 0.284-2.648 0.631v-0.456c0-0.204 0-0.386-0.21-0.386h-3c-0.206 0-0.209 0.18-0.209 0.386v12.934c0 0.207 0.015 0.361 0.217 0.361l2.953 0.002z"></path>
<path d="M47.18 12.141h-1.54c-0.905-0.002-1.804 0.154-2.655 0.462v-5.005c0-0.15-0.18-0.222-0.361-0.222h-2.734c-0.18 0-0.343 0.071-0.35 0.215v8.935h3.665c0.379-1.032 1.263-1.342 2.818-1.342h0.77c2.177 0 3.050 0.846 3.050 3.048v1.538c0 2.203-0.876 3.152-3.050 3.152h-0.77c-2.203 0-3.048-0.949-3.048-3.152v-1.059h-3.427v6.948c0 0.18 0.157 0.18 0.337 0.18h8.763c2.886-0.083 4.598-2.721 4.598-6.063v-1.539c0-3.869-2.205-6.097-6.066-6.097z"></path>
<path d="M110.516 26.154l-4.591-0.016c-2.526 0-4.405-1.624-4.577-3.864-0.003-0.049 0.004-0.099 0.020-0.146 0.017-0.047 0.043-0.090 0.077-0.126s0.074-0.065 0.12-0.085c0.045-0.020 0.094-0.030 0.144-0.030l2.733 0.009c0.209 0 0.31 0.18 0.385 0.39 0.234 0.7 1.16 0.781 1.467 0.781l3.844 0.015c0.361 0 1.522-0.206 1.525-1.262 0.002-1.057-1.16-1.082-1.518-1.082l-4.208-0.020c-2.685-0.011-4.616-1.665-4.607-4.095s1.952-4.149 4.605-4.138l4.048 0.015c2.397 0 4.202 1.465 4.525 3.552 0.002 0.051-0.007 0.102-0.026 0.15s-0.048 0.091-0.084 0.127c-0.036 0.036-0.080 0.064-0.128 0.083-0.047 0.019-0.098 0.027-0.15 0.026h-2.684c-0.117-0.021-0.227-0.066-0.324-0.134s-0.179-0.155-0.239-0.256c-0.171-0.163-0.373-0.288-0.595-0.369s-0.458-0.114-0.693-0.098l-3.247-0.011c-0.361 0-1.571 0-1.576 1.051 0 1.082 1.21 1.041 1.54 1.041l4.236 0.015c2.675 0.011 4.578 1.717 4.569 4.169s-1.923 4.329-4.6 4.319z"></path>
<path d="M140.059 12.335h-3.389c-2.663 0-4.6 1.763-4.6 4.191v8.93c0 0.202 0 0.386 0.201 0.386h3.001c0.206 0 0.23-0.18 0.23-0.386v-8.957c0-1.046 1.174-1.102 1.535-1.102h3.023c0.153 0 0.276-0.031 0.276-0.2v-2.641c0-0.17-0.123-0.215-0.276-0.225z"></path>
<path d="M156.447 25.45c0 0.204 0 0.386 0.2 0.386h3.002c0.207 0 0.23-0.18 0.23-0.387v-6.734h-3.432v6.735z"></path>
<path d="M159.683 12.469h-3c-0.208 0-0.23 0.18-0.23 0.386v3.677h3.427v-3.677c0-0.202 0-0.386-0.202-0.386z"></path>
<path d="M64.94 21.637c0 1.051-0.108 1.154-1.508 1.154h-3.814c-0.361 0-1.538-0.101-1.538-1.154v-0.381c0-1.082 1.179-1.128 1.538-1.128h3.814c0.361 0 1.508 0.051 1.508 1.128v0.381zM68.367 18.39c0-3.864-2.228-6.066-6.095-6.066h-5.52c-0.049 0.001-0.097 0.012-0.142 0.033s-0.085 0.049-0.119 0.085c-0.034 0.036-0.060 0.078-0.077 0.124s-0.025 0.095-0.023 0.144v2.276c-0.003 0.099 0.034 0.194 0.101 0.267s0.161 0.114 0.26 0.118h5.144c1.712 0 2.608 0.541 2.918 1.816-0.329-0.063-0.663-0.098-0.997-0.105h-4.582c-2.638 0-4.582 1.741-4.582 4.176v0.381c0 2.435 1.945 4.202 4.582 4.202h8.922c0.037 0.004 0.074-0.004 0.106-0.023s0.058-0.046 0.074-0.080c0.033-0.091 0.046-0.188 0.040-0.285l-0.011-7.063z"></path>
<path d="M154.707 12.322h-2.885c-0.206 0-0.309 0.21-0.386 0.449 0 0-2.926 8.405-3.012 8.405s-3.014-8.405-3.014-8.405c-0.078-0.24-0.181-0.451-0.386-0.451h-2.886c-0.206 0-0.283 0.211-0.181 0.451 0 0 3.994 11.058 4.824 12.903v0.020c0.050 0.112 0.112 0.132 0.147 0.135h2.957c0.038 0 0.098-0.023 0.15-0.137 0.808-1.784 4.833-12.927 4.833-12.927 0.102-0.24 0.027-0.449-0.181-0.449z"></path>
<path d="M165.996 16.524c0.599-0.767 1.001-0.902 2.647-0.927h0.772c0.703-0.065 1.411 0.055 2.054 0.346 0.225 0.162 0.422 0.359 0.584 0.584 0.154 0.21 0.18 0.393 0.392 0.393h3.228c0.212 0 0.284-0.19 0.212-0.393-0.114-0.33-0.256-0.65-0.426-0.956-1.060-2.036-2.985-3.106-5.655-3.117h-1.551c-2.924 0-5.316 1.262-5.926 4.067l3.669 0.003zM175.656 21.539h-3.027c-0.204 0-0.286 0.18-0.387 0.39-0.441 0.804-1.322 1.142-2.721 1.142h-0.772c-2.228 0-3.083-0.855-3.083-3.081v-1.275h-3.473v1.275c0 3.938 2.228 6.158 6.166 6.158h1.551c3.211 0 5.312-1.501 5.954-4.219 0.050-0.204 0-0.39-0.21-0.39z"></path>
<path d="M15.831 32c3.809-0.001 7.49-1.375 10.368-3.871s4.759-5.945 5.298-9.716l-31.331-0.003c0.538 3.771 2.419 7.222 5.296 9.718s6.559 3.871 10.368 3.872z"></path>
<path d="M9.012 16.86c-1.29 0-2.542-0.202-2.719-0.796-0.15-0.5 0.456-0.94 1.001-1.28 2.304-1.254 4.691-2.348 7.145-3.274 1.149-0.431 2.401-0.511 3.595-0.229 0.911 0.195 8.601 1.607 13.488 2.502-0.266-2.063-0.937-4.053-1.973-5.856s-2.418-3.385-4.065-4.654c-1.648-1.269-3.529-2.201-5.538-2.743s-4.103-0.682-6.166-0.413c-2.063 0.269-4.052 0.942-5.854 1.98s-3.382 2.421-4.65 4.071c-1.267 1.649-2.197 3.532-2.736 5.541s-0.677 4.104-0.406 6.166h31.465c0.036-0.325 0.061-0.653 0.078-0.983l-22.666-0.031z"></path>
</symbol>
<symbol id="new" viewBox="0 0 32 32">
<path d="M28 8v-4h-28v22c0 1.105 0.895 2 2 2h27c1.657 0 3-1.343 3-3v-17h-4zM26 26h-24v-20h24v20zM4 10h20v2h-20zM16 14h8v2h-8zM16 18h8v2h-8zM16 22h6v2h-6zM4 14h10v10h-10z"></path>
</symbol>
</defs>
</svg>
