<svg width="14" height="20" viewBox="0 0 14 20" fill="none" xmlns="http://www.w3.org/2000/svg">
<path d="M10.5903 1.86663C10.9259 1.86663 11.2478 1.99305 11.4851 2.2181C11.7224 2.44314 11.8558 2.74837 11.8558 3.06663V17.4666C11.8558 17.7849 11.7224 18.0901 11.4851 18.3152C11.2478 18.5402 10.9259 18.6666 10.5903 18.6666H2.99758C2.66196 18.6666 2.34009 18.5402 2.10277 18.3152C1.86545 18.0901 1.73213 17.7849 1.73213 17.4666V3.06663C1.73213 2.74837 1.86545 2.44314 2.10277 2.2181C2.34009 1.99305 2.66196 1.86663 2.99758 1.86663H10.5903ZM2.99758 0.666626C2.32634 0.666626 1.6826 0.919482 1.20796 1.36957C0.733323 1.81966 0.466675 2.43011 0.466675 3.06663V17.4666C0.466675 18.1031 0.733323 18.7136 1.20796 19.1637C1.6826 19.6138 2.32634 19.8666 2.99758 19.8666H10.5903C11.2615 19.8666 11.9053 19.6138 12.3799 19.1637C12.8546 18.7136 13.1212 18.1031 13.1212 17.4666V3.06663C13.1212 2.43011 12.8546 1.81966 12.3799 1.36957C11.9053 0.919482 11.2615 0.666626 10.5903 0.666626L2.99758 0.666626Z" fill="black"/>
<path d="M6.79393 17.4667C7.12955 17.4667 7.45142 17.3402 7.68874 17.1152C7.92606 16.8901 8.05938 16.5849 8.05938 16.2667C8.05938 15.9484 7.92606 15.6432 7.68874 15.4181C7.45142 15.1931 7.12955 15.0667 6.79393 15.0667C6.45831 15.0667 6.13643 15.1931 5.89912 15.4181C5.6618 15.6432 5.52847 15.9484 5.52847 16.2667C5.52847 16.5849 5.6618 16.8901 5.89912 17.1152C6.13643 17.3402 6.45831 17.4667 6.79393 17.4667Z" fill="black"/>
</svg>
