<svg width="19" height="18" viewBox="0 0 19 18" fill="none" xmlns="http://www.w3.org/2000/svg">
<path d="M18.4238 4.68379C18.3711 4.61097 18.3013 4.55153 18.2201 4.51049C18.139 4.46944 18.0488 4.44798 17.9574 4.44793H5.77353L4.85126 1.35109C4.48958 0.131644 3.63015 0 3.27766 0H0.818561C0.503369 0 0.248474 0.248474 0.248474 0.555083C0.248474 0.861692 0.503656 1.11015 0.818543 1.11015H3.27736C3.35515 1.11015 3.59253 1.11015 3.75444 1.65489L6.92714 13.0084C6.99603 13.2479 7.22021 13.4133 7.47595 13.4133H15.2256C15.4661 13.4133 15.6808 13.2666 15.7621 13.0461L18.4936 5.1908C18.5564 5.02058 18.5303 4.83108 18.4238 4.68379H18.4238ZM14.8244 12.3035H7.90865L6.09396 5.55837H17.1469L14.8244 12.3035ZM13.6937 14.5384C12.9009 14.5384 12.2585 15.1639 12.2585 15.9358C12.2585 16.7078 12.9009 17.3333 13.6937 17.3333C14.4865 17.3333 15.1289 16.7078 15.1289 15.9358C15.1289 15.1639 14.4865 14.5384 13.6937 14.5384ZM8.52694 14.5384C7.73413 14.5384 7.09172 15.1639 7.09172 15.9358C7.09172 16.7078 7.73413 17.3333 8.52694 17.3333C9.31976 17.3333 9.96216 16.7078 9.96216 15.9358C9.96216 15.1639 9.31976 14.5384 8.52694 14.5384Z" fill="black"/>
</svg>
