<svg aria-hidden="true" style="position: absolute; width: 0; height: 0; overflow: hidden;" version="1.1" xmlns="http://www.w3.org/2000/svg" xmlns:xlink="http://www.w3.org/1999/xlink">
<defs>
<symbol id="mobile" viewBox="0 0 22 32">
<path d="M16.944 2.987c0.537 0 1.052 0.202 1.432 0.562s0.593 0.848 0.593 1.358v23.040c0 0.509-0.213 0.998-0.593 1.358s-0.895 0.562-1.432 0.562h-12.148c-0.537 0-1.052-0.202-1.432-0.562s-0.593-0.848-0.593-1.358v-23.040c0-0.509 0.213-0.998 0.593-1.358s0.895-0.562 1.432-0.562h12.148zM4.796 1.067c-1.074 0-2.104 0.405-2.863 1.125s-1.186 1.697-1.186 2.715v23.040c0 1.018 0.427 1.995 1.186 2.715s1.789 1.125 2.863 1.125h12.148c1.074 0 2.104-0.404 2.863-1.125s1.186-1.697 1.186-2.715v-23.040c0-1.018-0.427-1.995-1.186-2.715s-1.789-1.125-2.863-1.125h-12.148z"></path>
<path d="M10.87 27.947c0.537 0 1.052-0.202 1.432-0.562s0.593-0.848 0.593-1.358c0-0.509-0.213-0.998-0.593-1.358s-0.895-0.562-1.432-0.562-1.052 0.202-1.432 0.562c-0.38 0.36-0.593 0.848-0.593 1.358s0.213 0.997 0.593 1.358c0.38 0.36 0.895 0.562 1.432 0.562z"></path>
</symbol>
<symbol id="basket" viewBox="0 0 34 32">
<path d="M32.753 8.327c-0.094-0.129-0.218-0.235-0.362-0.308s-0.305-0.111-0.467-0.111h-21.66l-1.64-5.505c-0.643-2.168-2.171-2.402-2.797-2.402h-4.372c-0.56 0-1.014 0.442-1.014 0.987s0.454 0.987 1.013 0.987h4.371c0.138 0 0.56 0 0.848 0.968l5.64 20.184c0.122 0.426 0.521 0.72 0.976 0.72h13.777c0.428 0 0.809-0.261 0.954-0.653l4.856-13.965c0.112-0.303 0.065-0.639-0.124-0.901v0zM26.355 21.873h-12.295l-3.226-11.991h19.65l-4.129 11.991zM24.344 25.846c-1.409 0-2.551 1.112-2.551 2.484s1.142 2.484 2.551 2.484 2.551-1.112 2.551-2.484c0-1.372-1.142-2.484-2.551-2.484zM15.159 25.846c-1.409 0-2.551 1.112-2.551 2.484s1.142 2.484 2.552 2.484 2.552-1.112 2.552-2.484c0-1.372-1.142-2.484-2.552-2.484z"></path>
</symbol>
</defs>
</svg>
